<?xml version="1.0" encoding="UTF-8"?>
<svg id="Layer_2" data-name="Layer 2" xmlns="http://www.w3.org/2000/svg" viewBox="0 0 176.06 95.53">
  <defs>
    <style>
      .cls-1 {
        fill: #94c93d;
      }

      .cls-1, .cls-2 {
        stroke-width: 0px;
      }

      .cls-2 {
        fill: #fff;
      }
    </style>
  </defs>
  <g id="Layer_1-2" data-name="Layer 1">
    <path class="cls-2" d="m36.15,48.21c-9.98,0-19.02,4.05-25.56,10.59-6.54,6.55-10.59,15.58-10.59,25.56h39.94c2.68-11.53,9.41-21.52,18.59-28.38-6.16-4.86-13.93-7.76-22.39-7.76Zm-.03-40.82c-10.6,0-19.2,8.6-19.2,19.2s8.6,19.2,19.2,19.2,19.2-8.59,19.2-19.2S46.72,7.4,36.12,7.4Z"/>
    <path class="cls-2" d="m165.47,58.71c-6.54-6.55-15.58-10.59-25.56-10.59-8.48,0-16.27,2.92-22.44,7.81,9.19,6.85,15.93,16.82,18.63,28.34h39.97c0-9.98-4.05-19.02-10.59-25.56Zm-25.6-51.41c-10.6,0-19.2,8.6-19.2,19.2s8.6,19.2,19.2,19.2,19.2-8.6,19.2-19.2-8.59-19.2-19.2-19.2Z"/>
    <path class="cls-1" d="m88.03,50.66h0c-24.78,0-44.87,20.09-44.87,44.87h0s89.74,0,89.74,0h0c0-24.78-20.09-44.87-44.87-44.87Z"/>
    <circle class="cls-1" cx="87.99" cy="23.83" r="23.83"/>
  </g>
</svg>