<?xml version="1.0" encoding="UTF-8"?>
<svg id="Layer_2" data-name="Layer 2" xmlns="http://www.w3.org/2000/svg" viewBox="0 0 60.62 60">
  <defs>
    <style>
      .cls-1 {
        fill: #93c83f;
      }

      .cls-1, .cls-2 {
        stroke-width: 0px;
      }

      .cls-2 {
        fill: #fff;
      }
    </style>
  </defs>
  <g id="Layer_1-2" data-name="Layer 1">
    <g>
      <path class="cls-1" d="M28.15,0c8.27,0,14.96,6.71,14.96,14.96s-6.71,14.96-14.96,14.96-14.96-6.71-14.96-14.96S19.9,0,28.15,0Z"/>
      <path class="cls-1" d="M47.5,54.53c-2.77,0-5.02-2.25-5.02-5.02v-5.61h-5.61c-2.77,0-5.02-2.25-5.02-5.02s2.25-5.02,5.02-5.02h1.81c-3.25-1.3-6.79-2.03-10.5-2.03C12.62,31.82,0,44.44,0,60h56.36c0-5.18-1.4-10.02-3.84-14.19v3.69c0,2.77-2.25,5.02-5.02,5.02Z"/>
    </g>
    <path class="cls-2" d="M58.13,36.38h-8.14v-8.14c0-1.37-1.11-2.49-2.49-2.49s-2.49,1.11-2.49,2.49v8.14h-8.14c-1.37,0-2.49,1.11-2.49,2.49s1.11,2.49,2.49,2.49h8.14v8.14c0,1.37,1.11,2.49,2.49,2.49s2.49-1.11,2.49-2.49v-8.14h8.14c1.37,0,2.49-1.11,2.49-2.49s-1.11-2.49-2.49-2.49Z"/>
  </g>
</svg>