<?xml version="1.0" encoding="UTF-8"?>
<svg id="Layer_2" data-name="Layer 2" xmlns="http://www.w3.org/2000/svg" viewBox="0 0 22.26 22.26">
  <defs>
    <style>
      .cls-1 {
        fill: #fff;
        stroke-width: 0px;
      }
    </style>
  </defs>
  <g id="Layer_1-2" data-name="Layer 1">
    <g>
      <path class="cls-1" d="M3.26,3.26c-4.34,4.34-4.34,11.4,0,15.75s11.4,4.34,15.75,0c4.34-4.34,4.34-11.4,0-15.75-4.34-4.34-11.4-4.34-15.75,0ZM17.38,17.38c-3.45,3.45-9.05,3.45-12.5,0s-3.45-9.05,0-12.5c3.45-3.45,9.05-3.45,12.5,0s3.45,9.05,0,12.5Z"/>
      <path class="cls-1" d="M14.37,6.1l-3.08,3.08-3.08-3.08c-.54-.54-1.41-.54-1.95,0s-.54,1.41,0,1.95l3.08,3.08-3.08,3.08c-.54.54-.54,1.41,0,1.95s1.41.54,1.95,0l3.08-3.08,3.08,3.08c.54.54,1.41.54,1.95,0s.54-1.41,0-1.95l-3.08-3.08,3.08-3.08c.54-.54.54-1.41,0-1.95s-1.41-.54-1.95,0Z"/>
    </g>
  </g>
</svg>