<?xml version="1.0" encoding="UTF-8"?>
<svg id="Layer_2" data-name="Layer 2" xmlns="http://www.w3.org/2000/svg" viewBox="0 0 39.73 33.36">
  <defs>
    <style>
      .cls-1 {
        fill: #94c93d;
      }

      .cls-1, .cls-2 {
        stroke-width: 0px;
      }

      .cls-2 {
        fill: #fff;
      }
    </style>
  </defs>
  <g id="Layer_1-2" data-name="Layer 1">
    <g>
      <path class="cls-2" d="m19.87,0L0,23.21h7.67v10.15h24.4v-10.15h7.67L19.87,0Zm-.28,15.69c2.18,0,3.95,1.77,3.95,3.95s-1.77,3.95-3.95,3.95-3.95-1.77-3.95-3.95,1.77-3.95,3.95-3.95Zm-7.44,15.85c0-4.11,3.33-7.45,7.45-7.45s7.44,3.33,7.44,7.45h-14.89Z"/>
      <path class="cls-1" d="m19.6,24.1c-4.11,0-7.45,3.33-7.45,7.45h14.89c0-4.11-3.33-7.45-7.44-7.45Z"/>
      <path class="cls-1" d="m19.59,23.6c2.18,0,3.95-1.77,3.95-3.95s-1.77-3.95-3.95-3.95-3.95,1.77-3.95,3.95,1.77,3.95,3.95,3.95Z"/>
    </g>
  </g>
</svg>