<?xml version="1.0" encoding="UTF-8"?>
<svg id="Layer_2" data-name="Layer 2" xmlns="http://www.w3.org/2000/svg" viewBox="0 0 40 36.78">
  <defs>
    <style>
      .cls-1 {
        fill: #94c93d;
      }

      .cls-1, .cls-2 {
        stroke-width: 0px;
      }

      .cls-2 {
        fill: #fff;
      }
    </style>
  </defs>
  <g id="Layer_1-2" data-name="Layer 1">
    <circle class="cls-1" cx="14.88" cy="14.88" r="10.58"/>
    <path class="cls-2" d="m39.11,32.89l-12.34-8.9s-.07-.04-.11-.06c1.93-2.51,3.09-5.64,3.09-9.05C29.75,6.67,23.08,0,14.88,0S0,6.67,0,14.88s6.67,14.88,14.88,14.88c3.29,0,6.33-1.09,8.79-2.91.14.24.34.45.58.62l12.34,8.9c.38.27.82.41,1.26.41.67,0,1.33-.31,1.75-.89.69-.96.48-2.31-.49-3Zm-24.23-7.44c-5.83,0-10.58-4.75-10.58-10.58S9.04,4.3,14.88,4.3s10.58,4.75,10.58,10.58-4.75,10.58-10.58,10.58Z"/>
  </g>
</svg>