<?xml version="1.0" encoding="UTF-8"?>
<svg id="Layer_2" data-name="Layer 2" xmlns="http://www.w3.org/2000/svg" viewBox="0 0 69.08 57.01">
  <defs>
    <style>
      .cls-1 {
        fill: #94c93d;
      }

      .cls-1, .cls-2 {
        stroke-width: 0px;
      }

      .cls-2 {
        fill: #fff;
      }
    </style>
  </defs>
  <g id="Layer_1-2" data-name="Layer 1">
    <path class="cls-2" d="M9.62,35.84H0c0-7.27,5.89-13.16,13.16-13.16h0c3.46,0,6.61,1.34,8.96,3.53-5.31,1.47-9.77,4.98-12.5,9.63ZM17.36,9.25c-1.17-.89-2.63-1.42-4.21-1.42-3.86,0-6.99,3.13-6.99,6.99s3.13,6.99,6.99,6.99c1.69,0,3.23-.6,4.44-1.59-.95-1.68-1.5-3.62-1.5-5.69,0-1.9.46-3.69,1.27-5.27Z"/>
    <path class="cls-1" d="M27.73,26.46c2.04,0,4.01.31,5.86.87,1.14.76,2.37,1.38,3.69,1.82-9.66,1.74-17.63,8.39-21.23,17.27H7.76c0-11.03,8.94-19.97,19.97-19.97h0ZM17.11,14.52c0,5.86,4.75,10.6,10.6,10.6.99,0,1.94-.15,2.85-.4-2.5-2.79-4.04-6.47-4.04-10.5,0-3.8,1.36-7.29,3.61-10.02-.78-.18-1.59-.29-2.43-.29-5.86,0-10.6,4.75-10.6,10.6Z"/>
    <path class="cls-2" d="M69.08,57.01h0s-53.56,0-53.56,0h0c0-14.79,11.99-26.78,26.78-26.78h0c14.79,0,26.78,11.99,26.78,26.78ZM56.5,14.22c0-7.85-6.37-14.22-14.22-14.22s-14.22,6.37-14.22,14.22,6.37,14.22,14.22,14.22,14.22-6.37,14.22-14.22Z"/>
  </g>
</svg>