<?xml version="1.0" encoding="UTF-8"?>
<svg id="Layer_2" data-name="Layer 2" xmlns="http://www.w3.org/2000/svg" viewBox="0 0 40 36.39">
  <defs>
    <style>
      .cls-1 {
        fill: #94c93d;
      }

      .cls-1, .cls-2 {
        stroke-width: 0px;
      }

      .cls-2 {
        fill: #fff;
      }
    </style>
  </defs>
  <g id="Layer_1-2" data-name="Layer 1">
    <g>
      <g>
        <path class="cls-1" d="m17.16,20.42c-.6,0-1.21-.23-1.67-.69l-6.75-6.75c-.92-.92-.92-2.41,0-3.34s2.41-.92,3.34,0l6.75,6.75c.92.92.92,2.41,0,3.34-.46.46-1.06.69-1.67.69Z"/>
        <path class="cls-1" d="m10.41,27.44c-.6,0-1.21-.23-1.67-.69-.92-.92-.92-2.41,0-3.34l6.75-6.75c.92-.92,2.41-.92,3.34,0s.92,2.41,0,3.34l-6.75,6.75c-.46.46-1.06.69-1.67.69Z"/>
        <path class="cls-1" d="m17,20.55H2.36c-1.3,0-2.36-1.06-2.36-2.36s1.06-2.36,2.36-2.36h14.65c1.3,0,2.36,1.06,2.36,2.36s-1.06,2.36-2.36,2.36Z"/>
      </g>
      <path class="cls-2" d="m37.64,36.39H9.68c-1.3,0-2.36-1.06-2.36-2.36s1.06-2.36,2.36-2.36h25.6V4.72H9.68c-1.3,0-2.36-1.06-2.36-2.36s1.06-2.36,2.36-2.36h27.96c1.3,0,2.36,1.06,2.36,2.36v31.67c0,1.3-1.06,2.36-2.36,2.36Z"/>
    </g>
  </g>
</svg>