<?xml version="1.0" encoding="UTF-8"?>
<svg id="Layer_2" data-name="Layer 2" xmlns="http://www.w3.org/2000/svg" viewBox="0 0 26.65 22.27">
  <defs>
    <style>
      .cls-1 {
        fill: #93c83f;
      }

      .cls-1, .cls-2 {
        stroke-width: 0px;
      }

      .cls-2 {
        fill: #fff;
      }
    </style>
  </defs>
  <g id="Layer_1-2" data-name="Layer 1">
    <g>
      <g>
        <path class="cls-1" d="M15.85,14.85h-5.96c-.74,0-1.34.6-1.34,1.34s.6,1.34,1.34,1.34h5.96c.74,0,1.34-.6,1.34-1.34s-.6-1.34-1.34-1.34Z"/>
        <path class="cls-1" d="M21.21,9.73h-11.32c-.74,0-1.34.6-1.34,1.34s.6,1.34,1.34,1.34h11.32c.74,0,1.34-.6,1.34-1.34s-.6-1.34-1.34-1.34Z"/>
        <path class="cls-1" d="M21.09,4.73h-11.32c-.74,0-1.34.6-1.34,1.34s.6,1.34,1.34,1.34h11.32c.74,0,1.34-.6,1.34-1.34s-.6-1.34-1.34-1.34Z"/>
        <circle class="cls-1" cx="5.43" cy="6.07" r="1.34"/>
        <circle class="cls-1" cx="5.43" cy="11.13" r="1.34"/>
        <circle class="cls-1" cx="5.43" cy="16.2" r="1.34"/>
      </g>
      <path class="cls-2" d="M24.38,2.26v17.74H2.26V2.26h22.12M25.11,0H1.54C.69,0,0,.69,0,1.54v19.19c0,.85.69,1.54,1.54,1.54h23.57c.85,0,1.54-.69,1.54-1.54V1.54c0-.85-.69-1.54-1.54-1.54h0Z"/>
    </g>
  </g>
</svg>
