<?xml version="1.0" encoding="UTF-8"?>
<svg id="Layer_2" data-name="Layer 2" xmlns="http://www.w3.org/2000/svg" viewBox="0 0 59.08 57.01">
  <defs>
    <style>
      .cls-1 {
        fill: #95c940;
        stroke-width: 0px;
      }
    </style>
  </defs>
  <g id="Layer_1-2" data-name="Layer 1">
    <g id="Layer_1-2" data-name="Layer 1-2">
      <path class="cls-1" d="M26.75,28.43c7.84,0,14.22-6.37,14.22-14.22S34.61,0,26.75,0s-14.22,6.37-14.22,14.22,6.37,14.22,14.22,14.22h0Z"/>
      <path class="cls-1" d="M41.2,48.74h-4.14c-1.59,0-2.9-1.3-2.9-2.9v-4.13c0-.76.31-1.51.85-2.05l5.58-5.57c-4.04-2.44-8.77-3.85-13.83-3.85-14.78,0-26.77,11.98-26.77,26.77h53.55c0-5.51-1.67-10.65-4.53-14.9l-5.78,5.78c-.55.55-1.27.85-2.05.85Z"/>
      <path class="cls-1" d="M58.35,26.37l-1.75-1.78c-.23-.26-.51-.45-.83-.57-.32-.13-.65-.19-.99-.19s-.66.06-.97.19-.59.31-.84.54l-16.54,16.51c-.17.17-.27.4-.27.64v4.14c0,.5.4.9.9.9h4.14c.24,0,.47-.09.64-.26l16.51-16.51c.26-.26.44-.54.56-.84.12-.31.17-.63.17-.97,0-.32-.06-.63-.17-.95-.12-.32-.3-.59-.56-.83h0ZM52.33,32.39l-11.54,11.54c-.17.17-.4.26-.64.26h-.54c-.5,0-.9-.4-.9-.9v-.54c0-.24.09-.47.26-.64l11.54-11.54c.32-.32.82-.35,1.18-.09l.35.37.37.35c.26.35.23.86-.09,1.18Z"/>
    </g>
  </g>
</svg>