<?xml version="1.0" encoding="UTF-8"?>
<svg id="Layer_2" data-name="Layer 2" xmlns="http://www.w3.org/2000/svg" viewBox="0 0 110.58 60">
  <defs>
    <style>
      .cls-1 {
        fill: #94c93d;
      }

      .cls-1, .cls-2 {
        stroke-width: 0px;
      }

      .cls-2 {
        fill: #fff;
      }
    </style>
  </defs>
  <g id="Layer_1-2" data-name="Layer 1">
    <g>
      <path class="cls-2" d="M22.7,30.28c-6.27,0-11.95,2.54-16.06,6.65C2.54,41.04,0,46.72,0,52.99h25.09c1.68-7.24,5.91-13.51,11.68-17.83-3.87-3.05-8.75-4.88-14.06-4.88ZM22.68,4.65c-6.66,0-12.06,5.4-12.06,12.06s5.4,12.06,12.06,12.06,12.06-5.4,12.06-12.06-5.4-12.06-12.06-12.06Z"/>
      <path class="cls-2" d="M103.93,36.88c-4.11-4.11-9.79-6.65-16.06-6.65-5.33,0-10.22,1.83-14.09,4.91,5.77,4.3,10,10.57,11.7,17.8h25.1c0-6.27-2.54-11.94-6.65-16.05ZM87.85,4.59c-6.66,0-12.06,5.4-12.06,12.06s5.4,12.06,12.06,12.06,12.06-5.4,12.06-12.06-5.4-12.06-12.06-12.06Z"/>
      <path class="cls-1" d="M55.29,31.82h0c-15.56,0-28.18,12.62-28.18,28.18h0s56.36,0,56.36,0h0c0-15.56-12.62-28.18-28.18-28.18Z"/>
      <circle class="cls-1" cx="55.27" cy="14.97" r="14.97"/>
    </g>
  </g>
</svg>