<?xml version="1.0" encoding="UTF-8"?>
<svg id="Layer_2" data-name="Layer 2" xmlns="http://www.w3.org/2000/svg" viewBox="0 0 429.62 77.1">
  <defs>
    <style>
      .cls-1 {
        fill: #94c93d;
      }

      .cls-1, .cls-2 {
        stroke-width: 0px;
      }

      .cls-2 {
        fill: #fff;
      }
    </style>
  </defs>
  <g id="Layer_1-2" data-name="Layer 1">
    <g>
      <path class="cls-1" d="m283.92,26.91c2.67,0,4.79.98,6.38,2.94s2.38,4.82,2.38,8.58c0,4-.84,6.91-2.51,8.74s-3.72,2.74-6.14,2.74c-3.64,0-6.16-1.67-7.56-5.02-.78-1.79-1.16-3.84-1.16-6.14,0-2.67.36-4.91,1.09-6.72,1.38-3.42,3.89-5.13,7.52-5.13Zm100.4,1.89c-1.5-1.26-3.25-1.89-5.23-1.89-3.03,0-5.25,1.15-6.67,3.44s-2.13,5.13-2.13,8.52c0,3.66.73,6.58,2.18,8.76,1.43,2.21,3.61,3.31,6.54,3.31s5.16-1.09,6.69-3.27,2.29-5,2.29-8.47c0-4.85-1.22-8.31-3.67-10.4Zm13.89,22.35V4.91h-10.51v18.9c-1.16-1.87-2.68-3.33-4.54-4.38s-4-1.58-6.4-1.58c-5.21,0-9.37,1.94-12.49,5.82-3.11,3.88-4.67,9.2-4.67,15.96,0,5.86,1.58,10.67,4.74,14.41s7.06,5.62,11.69,5.62c1.31,0,2.51-.13,3.62-.36-12.2,4.65-26.07,8.74-40.96,11.87-53.88,11.34-100.63,5.92-104.42-12.09-2.27-10.8,11.43-23.68,34.37-34.71-2.7,3.92-4.07,8.7-4.07,14.35,0,6.11,1.52,10.95,4.56,14.52s7.11,5.36,12.2,5.36c3.3,0,5.97-.79,8.03-2.36,1.14-.85,2.21-2.12,3.2-3.82v2.54c0,3.78-.41,6.47-1.24,8.07-1.26,2.5-3.76,3.74-7.49,3.74-2.64,0-4.52-.47-5.63-1.42-.65-.53-1.13-1.41-1.42-2.62h-11.27c.34,3.95,2.11,6.92,5.31,8.91s7.33,2.98,12.4,2.98c8.39,0,14.06-2.23,17.01-6.69,1.72-2.59,2.58-6.45,2.58-11.56V18.8h-10.07v5.71c-1.55-2.79-3.59-4.7-6.11-5.74-.94-.39-2-.64-3.15-.78,12.32-4.73,26.37-8.88,41.46-12.06C378.84-5.41,425.59,0,429.38,18.02c2.17,10.29-10.17,22.47-31.17,33.13Zm-62.82-33.22c-.46-.02-.76-.04-.89-.05s-.3-.02-.49-.02c-3.1,0-5.62.81-7.56,2.44-1.19.97-2.58,2.77-4.18,5.42v-6.91h-9.89v39.62h10.43v-18.94c0-3.17.4-5.53,1.2-7.05,1.43-2.71,4.23-4.07,8.4-4.07.32,0,.73.01,1.24.04s1.09.07,1.74.15v-10.61Zm16.72.87h-10.51v39.62h10.51V18.8Zm0-14.29h-10.51v9.56h10.51V4.51Z"/>
      <g>
        <path class="cls-2" d="m20.03,28.36c-4.17,0-6.97,1.36-8.4,4.07-.8,1.53-1.2,3.88-1.2,7.05v18.94H0V18.8h9.89v6.91c1.6-2.64,2.99-4.45,4.18-5.42,1.94-1.62,4.46-2.44,7.56-2.44.19,0,.36,0,.49.02s.43.03.89.05v10.61c-.65-.07-1.24-.12-1.74-.15s-.92-.04-1.24-.04Z"/>
        <path class="cls-2" d="m63,46.79c-.27,2.35-1.49,4.74-3.67,7.16-3.39,3.85-8.14,5.78-14.25,5.78-5.04,0-9.49-1.62-13.34-4.87s-5.78-8.53-5.78-15.85c0-6.86,1.74-12.12,5.22-15.78s7.99-5.49,13.54-5.49c3.3,0,6.26.62,8.91,1.85s4.82,3.19,6.54,5.85c1.55,2.35,2.56,5.08,3.02,8.18.27,1.82.38,4.43.33,7.85h-27.12c.15,3.97,1.39,6.76,3.74,8.36,1.43.99,3.15,1.49,5.16,1.49,2.13,0,3.87-.61,5.2-1.82.73-.65,1.37-1.56,1.93-2.73h10.58Zm-10.25-12.14c-.17-2.74-1-4.82-2.49-6.23s-3.34-2.13-5.54-2.13c-2.4,0-4.26.75-5.58,2.25s-2.15,3.54-2.49,6.11h16.1Z"/>
        <path class="cls-2" d="m89.13,26.47c-3.51,0-5.93,1.49-7.23,4.47-.68,1.58-1.02,3.59-1.02,6.03v21.45h-10.32V18.87h10v5.78c1.33-2.04,2.59-3.5,3.78-4.4,2.13-1.6,4.83-2.4,8.11-2.4,4.1,0,7.45,1.07,10.05,3.22,2.61,2.14,3.91,5.7,3.91,10.67v26.68h-10.61v-24.1c0-2.08-.28-3.68-.84-4.8-1.02-2.04-2.96-3.05-5.82-3.05Z"/>
        <path class="cls-2" d="m134.1,51.04v7.74l-4.91.18c-4.9.17-8.24-.68-10.03-2.54-1.16-1.19-1.74-3.02-1.74-5.49v-24.39h-5.53v-7.38h5.53v-11.05h10.25v11.05h6.43v7.38h-6.43v20.94c0,1.62.21,2.64.62,3.04s1.67.6,3.78.6c.32,0,.65,0,1-.02s.7-.03,1.04-.05Z"/>
        <path class="cls-2" d="m174.67,46.79c-.27,2.35-1.49,4.74-3.67,7.16-3.39,3.85-8.14,5.78-14.25,5.78-5.04,0-9.49-1.62-13.34-4.87s-5.78-8.53-5.78-15.85c0-6.86,1.74-12.12,5.22-15.78,3.48-3.66,7.99-5.49,13.54-5.49,3.3,0,6.26.62,8.91,1.85s4.82,3.19,6.54,5.85c1.55,2.35,2.56,5.08,3.02,8.18.27,1.82.38,4.43.33,7.85h-27.12c.15,3.97,1.39,6.76,3.74,8.36,1.43.99,3.15,1.49,5.16,1.49,2.13,0,3.87-.61,5.2-1.82.73-.65,1.37-1.56,1.93-2.73h10.58Zm-10.25-12.14c-.17-2.74-1-4.82-2.49-6.23s-3.34-2.13-5.54-2.13c-2.4,0-4.26.75-5.58,2.25s-2.15,3.54-2.49,6.11h16.1Z"/>
        <path class="cls-2" d="m202.08,28.36c-4.17,0-6.97,1.36-8.4,4.07-.8,1.53-1.2,3.88-1.2,7.05v18.94h-10.43V18.8h9.89v6.91c1.6-2.64,2.99-4.45,4.18-5.42,1.94-1.62,4.46-2.44,7.56-2.44.19,0,.36,0,.49.02s.43.03.89.05v10.61c-.65-.07-1.24-.12-1.74-.15s-.92-.04-1.24-.04Z"/>
        <path class="cls-2" d="m238.43,20.62c3.1,1.99,4.88,5.4,5.34,10.25h-10.36c-.15-1.33-.52-2.39-1.13-3.16-1.14-1.41-3.08-2.11-5.82-2.11-2.25,0-3.86.35-4.82,1.05s-1.44,1.53-1.44,2.47c0,1.19.51,2.05,1.53,2.58,1.02.56,4.62,1.51,10.8,2.87,4.12.97,7.21,2.44,9.27,4.4,2.04,1.99,3.05,4.47,3.05,7.45,0,3.93-1.46,7.13-4.38,9.61s-7.43,3.73-13.54,3.73-10.83-1.31-13.8-3.94-4.45-5.98-4.45-10.05h10.51c.22,1.84.69,3.15,1.42,3.93,1.28,1.38,3.66,2.07,7.12,2.07,2.04,0,3.65-.3,4.85-.91s1.8-1.51,1.8-2.73-.48-2.05-1.45-2.65-4.57-1.65-10.8-3.13c-4.48-1.11-7.65-2.51-9.49-4.18-1.84-1.65-2.76-4.02-2.76-7.12,0-3.66,1.44-6.8,4.31-9.43s6.91-3.94,12.12-3.94,8.98.98,12.1,2.94Z"/>
      </g>
    </g>
  </g>
</svg>