<?xml version="1.0" encoding="UTF-8"?>
<svg id="Layer_2" data-name="Layer 2" xmlns="http://www.w3.org/2000/svg" viewBox="0 0 67.41 60">
  <defs>
    <style>
      .cls-1 {
        fill: #93c740;
      }

      .cls-1, .cls-2 {
        stroke-width: 0px;
      }

      .cls-2 {
        fill: #fff;
      }
    </style>
  </defs>
  <g id="Layer_1-2" data-name="Layer 1">
    <g>
      <g>
        <circle class="cls-2" cx="28.16" cy="14.97" r="14.97"/>
        <path class="cls-2" d="M40.92,44.99v-10.12c-3.83-1.94-8.15-3.04-12.73-3.04h0C12.62,31.82,0,44.44,0,60h0s56.36,0,56.36,0h0c0-4.21-.93-8.2-2.58-11.79h-9.64c-1.78,0-3.23-1.45-3.23-3.23Z"/>
      </g>
      <g>
        <path class="cls-1" d="M65.98,25.78h-21.84c-.79,0-1.43.64-1.43,1.43v17.78c0,.79.64,1.43,1.43,1.43h21.84c.79,0,1.43-.64,1.43-1.43v-17.78c0-.79-.64-1.43-1.43-1.43ZM65.31,44.32h-20.5v-16.44h20.5v16.44Z"/>
        <path class="cls-1" d="M57.41,39.54h-5.53c-.69,0-1.24.56-1.24,1.24s.56,1.24,1.24,1.24h5.53c.69,0,1.24-.56,1.24-1.24s-.56-1.24-1.24-1.24Z"/>
        <path class="cls-1" d="M62.37,34.8h-10.49c-.69,0-1.24.56-1.24,1.24s.56,1.24,1.24,1.24h10.49c.69,0,1.24-.56,1.24-1.24s-.56-1.24-1.24-1.24Z"/>
        <path class="cls-1" d="M51.77,32.65h10.49c.69,0,1.24-.56,1.24-1.24s-.56-1.24-1.24-1.24h-10.49c-.69,0-1.24.56-1.24,1.24s.56,1.24,1.24,1.24Z"/>
        <path class="cls-1" d="M47.75,32.65c.69,0,1.24-.56,1.24-1.24s-.56-1.24-1.24-1.24-1.24.56-1.24,1.24.56,1.24,1.24,1.24Z"/>
        <path class="cls-1" d="M47.75,37.34c.69,0,1.24-.56,1.24-1.24s-.56-1.24-1.24-1.24-1.24.56-1.24,1.24.56,1.24,1.24,1.24Z"/>
        <path class="cls-1" d="M47.75,42.03c.69,0,1.24-.56,1.24-1.24s-.56-1.24-1.24-1.24-1.24.56-1.24,1.24.56,1.24,1.24,1.24Z"/>
      </g>
    </g>
  </g>
</svg>