<?xml version="1.0" encoding="UTF-8"?>
<svg id="Layer_2" data-name="Layer 2" xmlns="http://www.w3.org/2000/svg" viewBox="0 0 59.79 57.01">
  <defs>
    <style>
      .cls-1 {
        fill: #93c83f;
      }

      .cls-1, .cls-2 {
        stroke-width: 0px;
      }

      .cls-2 {
        fill: #fff;
      }
    </style>
  </defs>
  <g id="Layer_1-2" data-name="Layer 1">
    <g>
      <path class="cls-2" d="M34.62,41.07c-.9-1.56-.9-3.43,0-4.99l2.24-3.88c-3.11-1.27-6.51-1.97-10.08-1.97h0C11.99,30.23,0,42.22,0,57.01h0s53.56,0,53.56,0h0c0-4.9-1.32-9.49-3.62-13.44h-11c-1.8,0-3.42-.93-4.32-2.49Z"/>
      <circle class="cls-2" cx="26.75" cy="14.22" r="14.22"/>
      <path class="cls-1" d="M59.38,37.07l-8.91-15.44c-1.16-2.01-4.07-2.01-5.23,0l-8.91,15.44c-1.16,2.01.29,4.53,2.61,4.53h17.83c2.32,0,3.78-2.52,2.61-4.53ZM49.4,37.36c0,.86-.7,1.55-1.55,1.55s-1.55-.7-1.55-1.55h0c0-.86.7-1.55,1.55-1.55s1.55.7,1.55,1.55h0ZM49.4,33.04c0,.86-.7,1.55-1.55,1.55s-1.55-.7-1.55-1.55v-7.13c0-.86.7-1.55,1.55-1.55s1.55.7,1.55,1.55v7.13Z"/>
    </g>
  </g>
</svg>