<?xml version="1.0" encoding="UTF-8"?>
<svg id="Layer_2" data-name="Layer 2" xmlns="http://www.w3.org/2000/svg" viewBox="0 0 23.25 22.27">
  <defs>
    <style>
      .cls-1 {
        fill: #94c93d;
      }

      .cls-1, .cls-2 {
        stroke-width: 0px;
      }

      .cls-2 {
        fill: #fff;
      }
    </style>
  </defs>
  <g id="Layer_1-2" data-name="Layer 1">
    <g>
      <path class="cls-1" d="M22.83,10.03l-4.13-4.13c-.56-.56-1.48-.56-2.04,0s-.56,1.48,0,2.04l1.75,1.75h-5.65c-.8,0-1.44.65-1.44,1.44s.65,1.44,1.44,1.44h5.65l-1.75,1.75c-.56.56-.56,1.48,0,2.04.28.28.65.42,1.02.42s.74-.14,1.02-.42l4.13-4.13c.3-.3.44-.71.41-1.11.02-.4-.11-.8-.41-1.1Z"/>
      <path class="cls-2" d="M1.44,0h17.11c.8,0,1.44.65,1.44,1.44s-.65,1.44-1.44,1.44H2.89v16.49h15.66c.8,0,1.44.65,1.44,1.44s-.65,1.44-1.44,1.44H1.44c-.8,0-1.44-.65-1.44-1.44V1.44C0,.65.65,0,1.44,0Z"/>
    </g>
  </g>
</svg>