<?xml version="1.0" encoding="UTF-8"?>
<svg id="Layer_2" data-name="Layer 2" xmlns="http://www.w3.org/2000/svg" viewBox="0 0 92.02 73.14">
  <defs>
    <style>
      .cls-1 {
        fill: #94c93d;
      }

      .cls-1, .cls-2 {
        stroke-width: 0px;
      }

      .cls-2 {
        fill: #fff;
      }
    </style>
  </defs>
  <g id="Layer_1-2" data-name="Layer 1">
    <g>
      <path class="cls-2" d="m71.37,44.62c-3.99,0-7.23-3.24-7.23-7.23v-9.5h-9.51c-3.99,0-7.23-3.24-7.23-7.23s3.24-7.23,7.23-7.23h.41L43.55,0,0,50.89h16.81v22.25h53.5v-22.25h16.81l-9.1-10.64c-1.11,2.57-3.67,4.37-6.64,4.37Zm-28.42-10.21c4.79,0,8.67,3.88,8.67,8.67s-3.88,8.67-8.67,8.67-8.67-3.88-8.67-8.67,3.88-8.67,8.67-8.67Zm16.34,34.75H26.64c0-9.01,7.31-16.32,16.32-16.32s16.32,7.31,16.32,16.32h0Z"/>
      <path class="cls-1" d="m88.1,16.74h-12.82V3.92c0-2.16-1.75-3.92-3.92-3.92s-3.92,1.75-3.92,3.92v12.82h-12.82c-2.16,0-3.92,1.75-3.92,3.92s1.75,3.92,3.92,3.92h12.82v12.82c0,2.16,1.75,3.92,3.92,3.92s3.92-1.75,3.92-3.92v-12.82h12.82c2.16,0,3.92-1.75,3.92-3.92s-1.75-3.92-3.92-3.92Z"/>
    </g>
  </g>
</svg>