<?xml version="1.0" encoding="UTF-8"?>
<svg id="Layer_2" data-name="Layer 2" xmlns="http://www.w3.org/2000/svg" viewBox="0 0 117.15 117.15">
  <defs>
    <style>
      .cls-1 {
        fill: none;
      }

      .cls-1, .cls-2, .cls-3, .cls-4 {
        stroke-width: 0px;
      }

      .cls-2 {
        fill: #4d55a5;
      }

      .cls-3 {
        fill: #94c93d;
      }

      .cls-4 {
        fill: #fff;
      }
    </style>
  </defs>
  <g id="Layer_1-2" data-name="Layer 1">
    <circle class="cls-2" cx="58.58" cy="58.58" r="58.58" transform="translate(-24.26 58.58) rotate(-45)"/>
    <g>
      <path class="cls-1" d="m52.91,51.16c-.12-.11-.25-.23-.37-.34-.18.06-.36.13-.54.18.31.05.61.1.91.16Z"/>
      <path class="cls-4" d="m25,63.87h-12.19c0-9.21,7.46-16.67,16.67-16.67h0c4.39,0,8.38,1.7,11.35,4.47-6.72,1.87-12.38,6.31-15.84,12.21Zm9.81-33.7c-1.48-1.13-3.33-1.8-5.34-1.8-4.89,0-8.85,3.96-8.85,8.85s3.96,8.85,8.85,8.85c2.14,0,4.1-.76,5.63-2.02-1.2-2.13-1.9-4.59-1.9-7.21,0-2.4.58-4.67,1.61-6.68Z"/>
      <path class="cls-3" d="m47.95,51.98c2.58,0,5.07.39,7.42,1.11,1.44.96,3.01,1.75,4.68,2.31-12.24,2.2-22.34,10.63-26.89,21.89h-10.51c0-13.97,11.33-25.3,25.3-25.3h0Zm-13.46-15.13c0,7.42,6.02,13.44,13.44,13.44,1.25,0,2.46-.18,3.62-.51-3.17-3.53-5.11-8.19-5.11-13.31,0-4.82,1.72-9.24,4.57-12.69-.99-.23-2.01-.37-3.07-.37-7.42,0-13.44,6.02-13.44,13.44Z"/>
      <path class="cls-4" d="m100.34,90.69h0s-67.86,0-67.86,0h0c0-18.74,15.19-33.93,33.93-33.93h0c18.74,0,33.93,15.19,33.93,33.93Zm-15.94-54.22c0-9.95-8.07-18.02-18.02-18.02s-18.02,8.07-18.02,18.02,8.07,18.02,18.02,18.02,18.02-8.07,18.02-18.02Z"/>
    </g>
  </g>
</svg>